<svg xmlns="http://www.w3.org/2000/svg" viewBox="0 0 1330.6 1330.6">
  <g id="SK-Logo-Wrapper" data-name="Layer 2">
    <g id="SK-Logo">
      <g id="Square">
        <rect x="159.79" y="159.79" width="1011.02" height="1011.02" rx="30" transform="translate(-153.62 202.02) rotate(-15.5)"/>
        <rect x="159.79" y="159.79" width="1011.02" height="1011.02" rx="30" transform="translate(-153.62 202.02) rotate(-15.5)" style="fill: none;stroke: #ece70f;stroke-miterlimit: 10;stroke-width: 100px"/>
      </g>
      <g>
        <path d="M382.86,955.73,359,869.57s56.69,3.12,113.91-12.75c34.33-9.52,52.29-23.2,47.81-39.36-4.11-14.81-18.58-17.32-61.29-17.07-73,.68-129.16-13.48-147.08-78.1-22-79.44,35-135.14,132-162,62.61-17.37,101.27-16.49,101.27-16.49l25,90.2c-24.57.29-65.86,3-104.23,13.69-32.31,9-43.72,20.1-39.8,34.24,4.11,14.81,20.6,16.76,45.17,16.47,101.94-3.63,145.23,19.16,162.22,80.42,20.73,74.72-38,137.41-134.27,164.11C430.31,962.14,382.86,955.73,382.86,955.73Z" style="fill: #ece70f"/>
        <path d="M728.79,869.93,614.15,456.6c-5.61-20.2-15.67-22.48-37.21-16.51l-3.36.94L552.85,366.3s25.17-16.4,67.58-28.17c59.24-16.43,89.6,4.15,104.35,57.33L785.09,612.9l21.54-6,40.11-148.14,121.17-33.61L916.42,618.52c12.79,9.5,159.06,155.25,159.06,155.25L946.9,809.43,832,698.48l-21.54,6,36.78,132.62Z" style="fill: #ece70f"/>
      </g>
    </g>
  </g>
</svg>
